<?xml version="1.0" encoding="UTF-8" standalone="no"?>
<svg
   width="19.964602"
   height="23.957521"
   viewBox="0 0 19.964602 23.957521"
   version="1.1"
   id="svg1561"
   xmlns="http://www.w3.org/2000/svg"
   xmlns:svg="http://www.w3.org/2000/svg">
  <defs
     id="defs1565" />
  <path
     style="fill:#0d6dfc;stroke-width:0.0424779"
     d="M -3.425293e-8,12.976991 V 1.9964601 H 1.59083 c 1.737617,0 1.862173,-0.012569 2.352828,-0.2374255 C 4.477159,1.5145423 4.988793,1.0916445 5.750591,0.26548673 L 5.995397,1.2456055e-8 9.9959278,0.00328001 l 4.0005322,0.00328 0.382301,0.42645235 c 0.743053,0.82886724 1.545733,1.38780914 2.179082,1.51739234 0.138132,0.028262 0.839723,0.046055 1.815929,0.046055 h 1.59083 V 12.976991 23.957522 H 9.9823008 -3.425293e-8 Z M 18.000098,12.987611 17.989378,3.9716814 15.992917,3.9606764 13.996457,3.9496714 12.998566,4.9482876 12.000675,5.9469034 H 10.035153 8.0696278 L 7.02293,4.9482609 5.976233,3.9496189 3.975727,3.9606499 1.975222,3.9716809 1.964502,12.987611 1.953782,22.00354 H 9.9822968 18.010812 Z M 10.295957,3.9412623 c 0.251746,-0.074381 0.588196,-0.4214902 0.660758,-0.6816927 0.09576,-0.3434008 0.0033,-0.710909 -0.24652,-0.9802741 -0.380239,-0.409919 -1.0755492,-0.409919 -1.4557882,0 -0.392816,0.4234775 -0.38281,0.99033 0.02466,1.3969407 0.299341,0.2987107 0.620017,0.3822866 1.0168932,0.2650261 z"
     id="path2047" />
  <path
     style="fill:#0d6dfc;stroke-width:0.0424779"
     d="M 5.01239,10.470796 V 9.982301 h 4.9699108 4.9699122 v 0.488495 0.488496 H 9.9823008 5.01239 Z"
     id="path2049" />
  <path
     style="fill:#0d6dfc;stroke-width:0.0424779"
     d="m 5.01239,12.467257 v -0.488496 h 4.9699108 4.9699122 v 0.488496 0.488495 H 9.9823008 5.01239 Z"
     id="path2051" />
  <path
     style="fill:#0d6dfc;stroke-width:0.0424779"
     d="m 5.01239,14.463717 v -0.488496 h 4.9699108 4.9699122 v 0.488496 0.488495 H 9.9823008 5.01239 Z"
     id="path2053" />
  <path
     style="fill:#0d6dfc;stroke-width:0.0424779"
     d="m 5.01239,16.481416 v -0.467257 h 4.9699108 4.9699122 v 0.467257 0.467257 H 9.9823008 5.01239 Z"
     id="path2055" />
</svg>
