<?xml version="1.0" encoding="UTF-8" standalone="no"?>
<svg
   width="23.906584"
   height="21.946178"
   fill-rule="evenodd"
   clip-rule="evenodd"
   version="1.1"
   id="svg2121"
   xmlns="http://www.w3.org/2000/svg"
   xmlns:svg="http://www.w3.org/2000/svg">
  <defs
     id="defs2125" />
  <path
     style="fill:#0d6dfc;stroke-width:0.0424779"
     d="M 13.333919,21.928789 C 11.720955,21.814646 10.203915,21.059875 9.1666008,19.855426 8.8136698,19.44563 8.3637948,18.769547 8.1300118,18.297617 8.0000728,18.035313 7.9148808,17.915904 7.8242398,17.869032 7.6361238,17.771753 7.0402728,17.186608 6.8340038,16.896588 6.4363168,16.33743 6.1456908,15.723076 6.0431908,15.224895 5.9883348,14.958277 5.9829568,14.950925 5.6041488,14.62459 3.3986915,12.724638 1.1130327,9.3436344 0.30188099,6.7813427 0.04694069,5.9760285 -0.00275921,5.672612 1.148934e-4,4.9390662 0.00242089,4.3505403 0.01478589,4.2409508 0.11661549,3.9065367 0.17927199,3.7007694 0.28037339,3.4331588 0.34128539,3.3118464 0.91572519,2.1677908 2.1417674,1.38226 3.7940113,1.0996693 c 0.2199537,-0.03762 0.4022746,-0.073216 0.4051572,-0.079103 0.00288,-0.00589 0.085359,-0.11709236 0.1832814,-0.24712306 0.6849719,-0.9095762 2.0391609,-1.03775223 2.8892269,-0.2734696 0.427656,0.3844995 0.646312,0.88034616 0.646312,1.46564126 0,0.5844495 -0.19494,1.0423376 -0.611483,1.4362859 C 6.7010768,3.9744905 5.8082828,4.110919 5.0725568,3.7432723 4.794518,3.6043348 4.4443206,3.310281 4.3524443,3.1386081 4.2782652,3.0000034 4.2171239,2.9995191 3.6862679,3.1333311 2.6463052,3.3954728 2.0953124,3.8924109 1.9679847,4.683044 c -0.3013406,1.8711542 2.7268305,6.842622 5.3547511,8.791106 0.663478,0.49194 1.19032,0.725726 1.631992,0.724197 1.5325142,-0.0053 4.4234692,-3.025016 6.0999852,-6.3716637 1.02495,-2.045997 1.170494,-3.2752248 0.474571,-4.0081025 C 15.178749,3.4494323 14.442535,3.1100663 13.8553,3.0469399 13.631947,3.0229299 13.630877,3.0233899 13.504293,3.1977911 13.434463,3.2940051 13.281538,3.446618 13.16447,3.5369308 11.969922,4.4584685 10.22797,3.7492525 9.9939485,2.2460887 9.8309518,1.1991282 10.625145,0.14887914 11.679609,0.01695334 c 0.389717,-0.048758 0.782818,0.00895 1.112761,0.1633452 0.279302,0.1307014 0.674911,0.471165 0.819702,0.7054424 0.07701,0.12459766 0.115332,0.14297006 0.392093,0.18795796 2.266367,0.3684002 3.658697,1.5763656 3.89942,3.3830807 0.118048,0.885998 -0.121287,2.0759724 -0.682225,3.3920211 -1.034191,2.4263743 -3.00683,5.1521733 -4.901264,6.7725813 -0.389445,0.333112 -0.398596,0.3452 -0.427318,0.564441 -0.04113,0.313958 -0.256711,0.939254 -0.432184,1.253565 -0.235629,0.422061 -0.62246,0.875342 -0.990439,1.160578 l -0.340586,0.264001 0.178772,0.259673 c 0.283355,0.411586 0.940838,1.037547 1.338188,1.274033 0.402699,0.239669 1.038303,0.468853 1.49624,0.539509 0.462197,0.07131 1.340476,0.02957 1.776918,-0.08445 1.213728,-0.317098 2.481936,-1.22162 3.213045,-2.291635 l 0.205385,-0.300592 -0.294761,-0.28815 c -0.471633,-0.461058 -0.777771,-0.975818 -0.956646,-1.608565 -0.135127,-0.477992 -0.137077,-1.302119 -0.0042,-1.765888 0.415042,-1.44836 1.523259,-2.405831 2.994751,-2.587388 1.446031,-0.178416 2.908476,0.651885 3.533498,2.006138 0.245945,0.532895 0.297249,0.789584 0.295795,1.479941 -0.0012,0.571404 -0.01067,0.644078 -0.130912,1.005332 -0.317309,0.953307 -0.923895,1.661887 -1.776257,2.074927 -0.495823,0.240268 -0.791566,0.316997 -1.338053,0.347153 l -0.446018,0.02461 -0.148673,0.256858 c -0.395501,0.683298 -1.192468,1.596951 -1.847787,2.118326 -1.496482,1.190608 -3.134682,1.728852 -4.884956,1.604994 z m 7.722085,-6.068178 c 0.111926,-0.04848 0.305482,-0.184601 0.430124,-0.302482 0.546557,-0.516912 0.633502,-1.323734 0.209404,-1.943219 -0.306719,-0.448028 -0.756516,-0.667007 -1.310286,-0.637899 -0.418865,0.02202 -0.66276,0.123964 -0.958599,0.400687 -0.857006,0.801628 -0.528605,2.173406 0.609688,2.54676 0.246738,0.08093 0.759579,0.04882 1.019669,-0.06385 z"
     id="path2607" />
</svg>
