<?xml version="1.0" encoding="UTF-8" standalone="no"?>
<svg
   width="23.961178"
   height="21.997536"
   viewBox="0 0 23.961178 21.997536"
   version="1.1"
   id="svg36"
   xmlns="http://www.w3.org/2000/svg"
   xmlns:svg="http://www.w3.org/2000/svg">
  <defs
     id="defs40" />
  <path
     style="fill:#0d6dfc;fill-opacity:1;stroke-width:0.0424779"
     d="m 19.443061,18.946417 c -0.0099,-0.01752 -0.05997,-0.159559 -0.111185,-0.315638 -0.248431,-0.757041 -0.6961,-0.948429 -1.446927,-0.618595 l -0.360538,0.158383 -0.367645,-0.365942 -0.367645,-0.365942 0.150733,-0.3174 c 0.229208,-0.482647 0.230317,-0.848035 0.0034,-1.136451 -0.09732,-0.123724 -0.371471,-0.271937 -0.704896,-0.381088 l -0.223009,-0.073 V 14.98655 14.442357 l 0.107925,-0.02709 c 0.938744,-0.235609 1.20153,-0.736728 0.817875,-1.55964 l -0.15125,-0.32442 0.369282,-0.367572 0.369283,-0.367572 0.328014,0.155774 c 0.401417,0.190632 0.641033,0.224445 0.897213,0.126609 0.259693,-0.09918 0.414214,-0.292657 0.575935,-0.721145 l 0.137758,-0.364866 h 0.515444 0.515444 l 0.118503,0.33352 c 0.155713,0.438248 0.280581,0.613878 0.518246,0.72893 0.268941,0.130192 0.549308,0.102725 0.964613,-0.0945 l 0.319535,-0.151746 0.373927,0.375668 0.373928,0.375668 -0.165437,0.352514 c -0.202687,0.431889 -0.218885,0.681809 -0.06222,0.959924 0.118758,0.210817 0.264263,0.31069 0.691678,0.474762 l 0.306473,0.117646 0.01183,0.528601 0.01183,0.528601 -0.337498,0.117487 c -0.440948,0.153498 -0.660712,0.339135 -0.747515,0.631431 -0.08028,0.27035 -0.05563,0.420754 0.139644,0.851954 l 0.150453,0.332226 -0.365892,0.365893 -0.365893,0.365893 -0.337636,-0.158443 c -0.407075,-0.191028 -0.566427,-0.221218 -0.815725,-0.15454 -0.287573,0.07691 -0.502002,0.32539 -0.651003,0.75437 l -0.121563,0.349985 h -0.523718 c -0.288044,0 -0.531844,-0.01434 -0.541776,-0.03186 z m 1.101015,-2.735848 c 0.263898,-0.123966 0.549278,-0.40825 0.667224,-0.66466 0.140536,-0.305521 0.130706,-0.847074 -0.02059,-1.134005 -0.06159,-0.116814 -0.185572,-0.285944 -0.27551,-0.375844 -0.628333,-0.628067 -1.688722,-0.468158 -2.117308,0.319296 -0.09912,0.182111 -0.126176,0.291988 -0.140875,0.572039 -0.01615,0.307746 -0.0054,0.37452 0.0954,0.595217 0.175082,0.383143 0.454268,0.635472 0.844888,0.763615 0.247516,0.0812 0.687742,0.04602 0.946766,-0.07566 z"
     id="path897" />
  <path
     style="fill:#0d6dfc;fill-opacity:1;stroke-width:0.0424779"
     d="m 7.4589678,16.944932 c -0.116008,-0.02499 -0.138171,-0.0648 -0.322349,-0.579046 C 6.7231513,15.211435 6.4377229,14.859054 5.7418975,14.644009 5.2080861,14.479033 4.7608008,14.5705 3.7817703,15.044841 L 3.2932747,15.281517 2.4919889,14.480685 1.6907032,13.679853 1.9666417,13.090126 C 2.4858604,11.980469 2.530734,11.607979 2.2234457,10.958425 1.987396,10.459458 1.5237039,10.146419 0.47648979,9.7790576 L 0,9.6119046 0.011239,8.4883118 0.022478,7.3647198 0.62185389,7.14552 C 0.95151089,7.0249606 1.3227067,6.8711082 1.4467335,6.8036258 1.9383858,6.5361213 2.226645,6.1689417 2.3630739,5.6364076 2.486271,5.1555224 2.407464,4.8141795 1.9505802,3.8497429 L 1.6879603,3.2953782 2.4791522,2.5041863 C 3.2517453,1.7315932 3.27311,1.7141237 3.3880041,1.7610357 3.4527171,1.7874587 3.7541981,1.9242131 4.057962,2.0649351 4.933696,2.4706283 5.4296443,2.5099349 6.0191484,2.2203692 6.5464573,1.961354 6.7879249,1.6126143 7.1527908,0.58310591 c 0.127982,-0.3611166 0.210409,-0.5333133 0.265672,-0.5550112 0.09538,-0.03745 1.434748,-0.037463 1.8788426,-1.88e-5 l 0.311996,0.026306 0.224532,0.6008747 C 10.208077,1.6567762 10.412868,1.952341 10.915606,2.2165224 c 0.251012,0.1319032 0.354735,0.1608869 0.649688,0.1815458 0.463964,0.032497 0.742914,-0.041711 1.468623,-0.3906862 0.314673,-0.1513182 0.593544,-0.275124 0.619715,-0.275124 0.02617,0 0.396985,0.3497853 0.824032,0.7773006 l 0.776449,0.7773006 -0.296974,0.6613156 c -0.358884,0.7991811 -0.39922,0.9484165 -0.379824,1.4052928 0.01309,0.3082433 0.03621,0.3978393 0.175315,0.6792064 0.266465,0.5389822 0.673899,0.813905 1.719405,1.1601948 l 0.477877,0.158281 v 1.134648 1.1346478 l -0.562832,0.202601 c -1.057997,0.3808454 -1.372679,0.5920964 -1.620807,1.0880734 -0.35286,0.705326 -0.292462,1.165384 0.310824,2.367572 l 0.209874,0.418223 -0.798362,0.797533 -0.798362,0.797532 -0.642301,-0.302412 c -0.704684,-0.331783 -1.011568,-0.428991 -1.354317,-0.428991 -0.455982,0 -1.080423,0.303422 -1.330465,0.646487 -0.19328,0.265185 -0.282275,0.453161 -0.5285216,1.116344 l -0.220815,0.594691 -0.4841696,0.02627 c -0.631379,0.03426 -1.512882,0.03455 -1.67069,5.6e-4 z m 1.9228556,-5.752464 c 0.444967,-0.155764 0.7412616,-0.345481 1.1086876,-0.709894 0.549485,-0.5449794 0.816734,-1.1822084 0.819432,-1.9538552 0.0018,-0.518607 -0.07281,-0.860471 -0.282804,-1.2955754 C 10.654212,6.4604389 9.9063194,5.8862625 9.0401988,5.707717 8.4129378,5.5784113 7.8325778,5.654378 7.2224788,5.9456504 c -0.30079,0.143602 -0.4250872,0.2370877 -0.7446016,0.5600237 -0.425517,0.430074 -0.644132,0.8038217 -0.7609436,1.3009207 -0.081687,0.347624 -0.083201,0.953209 -0.00333,1.3301768 0.1922298,0.9072274 0.9504799,1.7513234 1.8314842,2.0388384 0.456657,0.14903 0.480487,0.152207 1.03668,0.138213 0.393554,-0.0099 0.549048,-0.03349 0.8000536,-0.121355 z"
     id="path1382" />
  <path
     style="fill:#0d6dfc;fill-opacity:1;stroke-width:0.0424779"
     d="m 12.537567,21.815339 c -0.04291,-0.100208 -0.09115,-0.223718 -0.107213,-0.274467 -0.01606,-0.05075 -0.104902,-0.160661 -0.197423,-0.244248 -0.144457,-0.130509 -0.197458,-0.151977 -0.375201,-0.151977 -0.128911,0 -0.298352,0.04041 -0.449222,0.10713 l -0.242239,0.10713 -0.155967,-0.124426 c -0.08578,-0.06843 -0.212549,-0.184005 -0.281707,-0.256825 -0.118617,-0.124898 -0.122572,-0.140162 -0.06982,-0.269429 0.153244,-0.375514 0.180877,-0.488305 0.161847,-0.660614 -0.03115,-0.282008 -0.321293,-0.539979 -0.69903,-0.621511 l -0.1380528,-0.0298 v -0.391773 -0.391774 l 0.2020558,-0.07266 c 0.6113,-0.219821 0.783103,-0.564328 0.540892,-1.084625 -0.05818,-0.124975 -0.10578,-0.249821 -0.10578,-0.277436 0,-0.05993 0.47296,-0.536131 0.532205,-0.535849 0.02269,1.08e-4 0.155937,0.04744 0.296114,0.105187 0.140177,0.05774 0.31794,0.105443 0.395029,0.105998 0.295698,0.0021 0.533808,-0.221858 0.664992,-0.625541 l 0.07247,-0.223009 h 0.396712 0.396712 l 0.06724,0.20177 c 0.142106,0.426448 0.36913,0.648293 0.661715,0.646621 0.08177,-4.67e-4 0.263363,-0.04809 0.40354,-0.105839 0.140177,-0.05774 0.273428,-0.105079 0.296113,-0.105187 0.05925,-2.82e-4 0.532205,0.475915 0.532205,0.535849 0,0.02762 -0.0476,0.152461 -0.105779,0.277436 -0.243227,0.522478 -0.02673,0.930358 0.583655,1.099607 l 0.159292,0.04417 v 0.398528 0.398527 l -0.138053,0.0298 c -0.377737,0.08153 -0.667883,0.339503 -0.69903,0.621511 -0.01903,0.172309 0.0086,0.2851 0.161847,0.660614 0.05275,0.129267 0.0488,0.144531 -0.06982,0.269429 -0.06916,0.07282 -0.194965,0.18763 -0.279571,0.255133 l -0.153831,0.122735 -0.270403,-0.109875 c -0.395213,-0.160589 -0.639731,-0.130488 -0.848189,0.104415 -0.08472,0.09546 -0.192394,0.27467 -0.239282,0.398236 l -0.08525,0.224666 -0.36788,0.01229 -0.367881,0.01228 z m 0.759247,-1.859436 c 0.646834,-0.17998 0.896769,-1.110274 0.435469,-1.620878 -0.21438,-0.237294 -0.447027,-0.347327 -0.732814,-0.346593 -0.710387,0.0018 -1.177627,0.643252 -0.970983,1.332968 0.146773,0.489885 0.733387,0.783349 1.268328,0.634503 z"
     id="path1384" />
</svg>
