<svg width="64" height="64" xmlns="http://www.w3.org/2000/svg">
 <title/>

 <g>
  <title>background</title>
  <rect fill="none" id="canvas_background" height="402" width="582" y="-1" x="-1"/>
 </g>
 <g>
  <title>Layer 1</title>
  <path id="svg_1" fill="#e0ebee" d="m53.31,44.181l-12.31,-3.85l-18,0l-12.31,3.85a6,6 0 0 0 -4.16,5l-0.53,4.15c7.89,3.5 17.36,5 26,5s18.11,-1.49 26,-5l-0.52,-4.17a6,6 0 0 0 -4.17,-4.98z"/>
  <path id="svg_2" fill="#cedde1" d="m58,53.331l-0.29,-2.331a6.132,6.132 0 0 0 -3.57,-2.81l-12.79,-3.86l-18.7,0l-12.78,3.851a6.162,6.162 0 0 0 -3.57,2.819l-0.3,2.331c7.89,3.5 17.36,5 26,5s18.11,-1.49 26,-5z"/>
  <path id="svg_3" fill="#eaf2f3" d="m27.94,58.211c-0.58,-1.07 -4.94,-9.47 -4.94,-17.88l0,0l-3.83,1.2l-3.17,6.38l5,3l-2.24,6.24a71.834,71.834 0 0 0 9.18,1.06z"/>
  <polyline id="svg_4" stroke-linejoin="round" stroke="#c5d5d8" points="19.17 41.531 16 47.911 21 50.911 18.77 57.151" fill="none"/>
  <path id="svg_5" fill="#eaf2f3" d="m36.06,58.211c0.58,-1.07 4.94,-9.47 4.94,-17.88l0,0l3.83,1.2l3.17,6.38l-5,3l2.24,6.24a71.834,71.834 0 0 1 -9.18,1.06z"/>
  <polyline id="svg_6" stroke-linejoin="round" stroke="#c5d5d8" points="44.83 41.531 48 47.911 43 50.911 45.23 57.151" fill="none"/>
  <path id="svg_7" stroke-width="1.5" stroke-linejoin="round" stroke="#343433" fill="#6d797d" d="m36,58.331s5,-9 5,-18l-18,0c0,9 5,18 5,18"/>
  <polygon id="svg_8" points="37.97 43.341 31.97 48.331 25.97 43.341 25.97 36.341 37.97 36.341 37.97 43.341" fill="#e6b790"/>
  <path id="svg_9" stroke-width="1.5" stroke-linejoin="round" stroke="#343433" fill="#4994c4" d="m32,58.331c1.21,0 2.44,0 3.67,-0.1c-0.97,-3.231 -2.67,-8.9 -2.67,-8.9l-2,0l-2.67,8.91c1.23,0.059 2.46,0.09 3.67,0.09z"/>
  <path id="svg_10" stroke-width="1.5" stroke-miterlimit="10" stroke="#343433" fill="none" d="m35.67,58.241c-0.97,-3.241 -2.67,-8.91 -2.67,-8.91l-2,0l-2.67,8.91"/>
  <path id="svg_11" fill="#343433" d="m32.29,49.331l0.21,3a0.5,0.5 0 1 1 -1,0.06l0,-0.07l0.21,-3a0.291,0.291 0 0 1 0.309,-0.27l0,0a0.3,0.3 0 0 1 0.271,0.28z"/>
  <polygon id="svg_12" stroke-width="1.5" stroke-linejoin="round" stroke="#343433" points="32 44.331 29.33 47.661 31 49.331 33 49.331 34.58 47.551 32 44.331" fill="#4994c4"/>
  <path id="svg_13" stroke-width="1.5" stroke-linejoin="round" stroke="#343433" fill="#6d797d" d="m25,37.331s1.53,3.51 7,7l-4,5c-3,-3 -5,-7 -5,-9l2,-3z"/>
  <path id="svg_14" stroke-width="1.5" stroke-linejoin="round" stroke="#343433" fill="#6d797d" d="m39,37.331s-1.53,3.51 -7,7l4,5c3,-3 5,-7 5,-9l-2,-3z"/>
  <path id="svg_15" stroke-width="1.5" stroke-linejoin="round" stroke="#343433" fill="none" d="m41,40.331l12.31,3.85a6,6 0 0 1 4.16,5l0.53,4.15c-7.89,3.5 -17.36,5 -26,5s-18.11,-1.49 -26,-5l0.52,-4.17a6,6 0 0 1 4.16,-5l12.32,-3.83"/>
  <path id="svg_16" stroke-width="1.5" stroke-linejoin="round" stroke="#333" fill="none" d="m18,46.331s5,7 5,10c0,1.17 -1,2 -3,2"/>
  <path id="svg_17" stroke-width="1.5" stroke-linejoin="round" stroke="#333" fill="none" d="m16,58.331c-2,0 -3,-0.83 -3,-2c0,-3 5,-10 5,-10"/>
  <path id="svg_18" stroke-width="1.5" stroke-linejoin="round" stroke="#333" fill="none" d="m45.22,52.331l0,-11a3.831,3.831 0 0 0 -3.65,-4l-2.35,0"/>
  <path id="svg_19" stroke-width="1.5" stroke-linejoin="round" stroke="#333" fill="none" d="m18,47.331l0,-6a3.831,3.831 0 0 1 3.65,-4l3.35,0"/>
  <path id="svg_20" fill="#e0ebee" d="m48.72,55.831a3.5,3.5 0 1 1 -3.5,-3.5a3.5,3.5 0 0 1 3.5,3.5z"/>
  <circle id="svg_21" r="1" fill="#333" cy="55.831" cx="45.22"/>
  <path id="svg_22" stroke-width="1.5" stroke-linejoin="round" stroke="#333" fill="none" d="m48.72,55.831a3.5,3.5 0 1 1 -3.5,-3.5a3.5,3.5 0 0 1 3.5,3.5z"/>
  <circle id="svg_23" r="1" fill="#333" cy="58.331" cx="16"/>
  <circle id="svg_24" r="1" fill="#333" cy="58.331" cx="20"/>
  <polyline id="svg_25" stroke-width="1.5" stroke-linejoin="round" stroke="#333" points="25.97 38.901 25.97 36.341 37.97 36.341 37.97 38.971" fill="none"/>
  <path id="svg_26" fill="#efc8a5" d="m42.82,21.761l0,-2.161c0,-5.87 -2,-11.9 -10.82,-11.9s-10.82,6 -10.82,11.9l0,2.16c-0.09,0 -3.25,0 -2.16,5.41a4.22,4.22 0 0 0 3.25,3.25c0,3.84 1.08,4.33 4.74,8.09c1.41,1.8 3.13,1.64 5,1.64s3.59,0.15 5,-1.64c3.66,-3.77 4.74,-4.25 4.74,-8.09a4.22,4.22 0 0 0 3.25,-3.249c1.07,-5.41 -2.09,-5.44 -2.18,-5.41z"/>
  <path id="svg_29" fill="#e6b790" d="m42.82,19.6c0,-5.87 -2,-11.9 -10.82,-11.9s-10.82,6 -10.82,11.9l0,2.16a0.808,0.808 0 0 0 -0.31,0l1.4,1.53l0,1.71c1.16,-1.16 0.13,-1.69 2.16,-3.81c0,-0.49 0.17,-3 0.16,-2.88c0,-0.11 -0.87,-2.52 1.23,-2.4c0,0 7.71,3.58 9.82,4.38a13.251,13.251 0 0 0 5,0.52c0.08,1 0.14,2 0.22,2.93a1.378,1.378 0 0 0 0.83,1.16a6.065,6.065 0 0 1 1.08,-3.54l0.05,-1.76z"/>
  <path id="svg_30" fill="#ddad8a" d="m42.82,21.371l0,-1.771c0,-5.87 -2,-11.9 -10.82,-11.9a14.3,14.3 0 0 0 -3.25,0.3l0,9.24c2.41,1.08 5.61,2.55 6.86,3a13.251,13.251 0 0 0 5,0.52c0.08,1 0.14,2 0.22,2.93a1.359,1.359 0 0 0 0.85,1.16a6.152,6.152 0 0 1 1.14,-3.479z"/>
  <path id="svg_32" stroke-width="1.623" stroke-linejoin="round" stroke="#333" fill="none" d="m42.962075,22.045153l0,-2.161c0,-5.87 -2,-11.9 -10.82,-11.9s-10.82,6 -10.82,11.9l0,2.16c-0.09,0 -3.25,0 -2.16,5.41a4.22,4.22 0 0 0 3.25,3.25c0,3.84 1.08,4.33 4.74,8.09c1.41,1.8 3.13,1.64 5,1.64s3.59,0.15 5,-1.64c3.66,-3.77 4.74,-4.25 4.74,-8.09a4.22,4.22 0 0 0 3.25,-3.249c1.07,-5.41 -2.09,-5.44 -2.18,-5.41z"/>
  <path id="svg_33" fill="#444" d="m24.43,9.861c-7.18,2.66 -3.89,10.82 -3.25,11.9a5.856,5.856 0 0 1 1.08,3.239l0,-1.71a3.694,3.694 0 0 1 1.08,-2.61l0,-2.16a2.81,2.81 0 0 1 1.23,-3.77a2.722,2.722 0 0 1 1.11,-0.3a4.092,4.092 0 0 1 2.16,0.51l6.8,3.48a11.851,11.851 0 0 0 4.93,1.17l2.16,0l0,5.39c-0.17,-3.8 2.16,-2.94 2.16,-7.93c0.01,-12.259 -16.43,-14.209 -19.46,-7.209z"/>
  <path id="svg_34" fill="#333" d="m34.28,16.511a10.293,10.293 0 0 1 6.56,-5.33c-3.34,0 -6.19,1.73 -8.84,4.08a10,10 0 0 1 6,-4.88c-2.39,0 -5.45,1.28 -8.14,3.8a9.4,9.4 0 0 1 7,-4.91c-3.38,-0.36 -5,0.26 -8.85,3.44c0.79,-2.15 3.05,-3.58 5.46,-4.35c-3.57,-0.2 -6.74,1 -7.92,3.66c-2.92,1.08 -4.58,3.12 -4.33,6.49l0,3.3a4.913,4.913 0 0 1 1.04,3.189c0,-2 -0.14,-3.11 1.08,-4.33l0,-2.16c-1.22,-2.39 1.34,-5.31 4.5,-3.56c7.94,4.35 9.23,4.75 13.9,4.64l0,5.41a4.792,4.792 0 0 1 1.08,-3.25c1,-0.95 1.08,-2.16 1.08,-4.69l0,-0.74a9.091,9.091 0 0 0 -0.7,-3.49c-3.26,-0.269 -6.32,1.17 -8.92,3.681z"/>
  <path id="svg_45" fill="#333" d="m41.37,25a6,6 0 0 1 0.26,-2.37a17.139,17.139 0 0 1 1.07,-2a7.99,7.99 0 0 0 0.6,-4.1a10.643,10.643 0 0 0 -1,-4.06a9.8,9.8 0 0 0 -2.58,-3.24a12.2,12.2 0 0 0 -7.8,-2.6a9.653,9.653 0 0 0 -4,0.87a5.473,5.473 0 0 0 -2.78,2.64l0,0a0.758,0.758 0 0 1 -0.42,0.39a6.585,6.585 0 0 0 -3.16,2.27a6.284,6.284 0 0 0 -1.06,3.8a12.391,12.391 0 0 0 0.79,4.11a6.539,6.539 0 0 0 0.42,0.94q0.27,0.5 0.51,1a5,5 0 0 1 0.42,2.35a0.36,0.36 0 0 1 -0.377,0.342l-0.023,0a0.359,0.359 0 0 1 -0.34,-0.342a4.2,4.2 0 0 0 -0.5,-1.93c-0.15,-0.31 -0.33,-0.61 -0.52,-0.92a6.733,6.733 0 0 1 -0.53,-1a13.258,13.258 0 0 1 -1,-4.45a7.567,7.567 0 0 1 1.11,-4.57a7.856,7.856 0 0 1 3.76,-2.93l-0.43,0.4a7.107,7.107 0 0 1 3.42,-3.6a11.273,11.273 0 0 1 4.67,-1a13.313,13.313 0 0 1 8.76,3.12a10.925,10.925 0 0 1 2.85,3.78a12.01,12.01 0 0 1 1,4.58a8.65,8.65 0 0 1 -0.91,4.6a17.443,17.443 0 0 0 -1.12,1.92a5.225,5.225 0 0 0 -0.32,2l0,0a0.37,0.37 0 0 1 -0.37,0.37a0.338,0.338 0 0 1 -0.4,-0.272a0.357,0.357 0 0 1 0,-0.098z"/>
  <path id="svg_46" fill="#333" d="m21.89,25a18.742,18.742 0 0 1 0,-2.37a3.823,3.823 0 0 1 1.11,-2.319l-0.16,0.39l-0.06,-2.16l0.07,0.28a3.673,3.673 0 0 1 -0.41,-1.67a3.477,3.477 0 0 1 0.48,-1.67a3.575,3.575 0 0 1 2.91,-1.75a4.208,4.208 0 0 1 1.69,0.25c0.26,0.09 0.51,0.22 0.76,0.33l0.63,0.33l2.46,1.359a43,43 0 0 0 5,2.38a15.334,15.334 0 0 0 5.37,0.75l0,0a0.55,0.55 0 0 1 0.55,0.55l0,0.01l0,0c0,1.8 -0.11,3.61 -0.2,5.41a0.37,0.37 0 1 1 -0.74,0c-0.09,-1.8 -0.15,-3.61 -0.2,-5.41l0.58,0.57a16.188,16.188 0 0 1 -5.85,-0.48a31.287,31.287 0 0 1 -5.32,-2.32c-0.84,-0.45 -1.67,-0.9 -2.5,-1.38l-0.62,-0.35l-0.44,-0.3a3.013,3.013 0 0 0 -1.09,-0.21a2.161,2.161 0 0 0 -1.8,1a2.268,2.268 0 0 0 -0.35,1a2.516,2.516 0 0 0 0.2,1.07l0,0.07a0.53,0.53 0 0 1 0,0.21l-0.06,2.16l0,0a0.5,0.5 0 0 1 -0.16,0.35a2.911,2.911 0 0 0 -1,1.7a17.667,17.667 0 0 0 -0.15,2.24a0.38,0.38 0 0 1 -0.38,0.36a0.458,0.458 0 0 1 -0.32,-0.38z"/>
 </g>
</svg>