<?xml version="1.0" encoding="UTF-8" standalone="no"?>
<!-- Created with Inkscape (http://www.inkscape.org/) -->

<svg
   width="14.950958mm"
   height="14.387085mm"
   viewBox="0 0 14.950958 14.387085"
   version="1.1"
   id="svg5"
   inkscape:export-filename="logo.svg"
   inkscape:export-xdpi="68.779999"
   inkscape:export-ydpi="68.779999"
   xmlns:inkscape="http://www.inkscape.org/namespaces/inkscape"
   xmlns:sodipodi="http://sodipodi.sourceforge.net/DTD/sodipodi-0.dtd"
   xmlns="http://www.w3.org/2000/svg"
   xmlns:svg="http://www.w3.org/2000/svg">
  <sodipodi:namedview
     id="namedview7"
     pagecolor="#ffffff"
     bordercolor="#999999"
     borderopacity="1"
     inkscape:showpageshadow="0"
     inkscape:pageopacity="0"
     inkscape:pagecheckerboard="0"
     inkscape:deskcolor="#d1d1d1"
     inkscape:document-units="mm"
     showgrid="false" />
  <defs
     id="defs2" />
  <g
     inkscape:label="Arriba"
     inkscape:groupmode="layer"
     id="layer1"
     style="display:inline"
     transform="translate(-38.255776,-73.310186)">
    <path
       style="fill:#00008a;fill-opacity:1;stroke-width:0.0393833"
       d="m 40.298939,81.633333 c -0.850771,-0.107583 -1.631928,-0.57437 -1.877443,-1.121884 -0.308138,-0.687172 -0.176148,-1.547387 0.309362,-2.016184 0.362088,-0.349628 0.652866,-0.452511 1.470985,-0.520473 0.501846,-0.04169 2.61401,-0.160627 2.863105,-0.161223 l 0.122544,-2.02e-4 0.01795,-1.522114 c 0.01496,-1.268825 0.02864,-1.556075 0.0822,-1.726221 0.280136,-0.890027 1.040179,-1.347487 2.030623,-1.222207 0.634749,0.08029 1.135669,0.461319 1.441095,1.096179 0.203754,0.423524 0.227614,0.62631 0.207397,1.762713 -0.01662,0.933999 -0.02403,1.016223 -0.12112,1.344398 -0.216164,0.730636 -0.550741,1.306047 -1.105435,1.901153 -1.229714,1.319286 -2.949203,2.119374 -4.727151,2.19955 -0.24653,0.0111 -0.567878,0.0051 -0.714111,-0.01342 z"
       id="path1316" />
    <path
       style="display:inline;fill:#f9f9f9;fill-opacity:1;stroke-width:0.0336269"
       d="m 43.133842,77.840505 c -0.0095,1.689758 -1.016378,3.681191 -1.016378,3.681191 2.082052,-0.439813 3.860995,-1.855084 4.564606,-3.318171 0.47621,-0.796562 0.402379,-1.958908 0.379407,-2.795242 -0.02252,-0.81959 -0.442923,-2.138282 -2.016464,-2.097157 -1.712562,0.04477 -1.862974,1.443336 -1.862974,1.443336 z"
       id="path1376"
       sodipodi:nodetypes="cccsscc" />
  </g>
  <g
     inkscape:groupmode="layer"
     id="layer2"
     inkscape:label="Abajo"
     style="display:inline"
     transform="translate(-38.255776,-73.310186)">
    <path
       style="fill:#000080;fill-opacity:1;stroke-width:0.0392973"
       d="m 46.001173,87.658275 c -0.604818,-0.111311 -1.084302,-0.473687 -1.34562,-1.016975 -0.248435,-0.516501 -0.271019,-0.679816 -0.239684,-1.733167 0.02333,-0.784241 0.04196,-0.985744 0.120039,-1.298646 0.222066,-0.889858 0.75466,-1.701578 1.588617,-2.421196 1.140061,-0.983757 2.489,-1.55991 3.919425,-1.674047 1.234293,-0.09849 2.084717,0.109166 2.642279,0.645191 0.363162,0.349134 0.521313,0.730943 0.520502,1.256608 -0.0013,0.86376 -0.435254,1.441114 -1.23765,1.646762 -0.285295,0.07312 -1.193092,0.129928 -2.622638,0.164129 l -1.128287,0.02699 -0.0013,0.558271 c -7.99e-4,0.307046 -0.01711,0.977256 -0.03645,1.489344 -0.04,1.058435 -0.08771,1.287778 -0.346181,1.663785 -0.36692,0.533776 -1.130192,0.822311 -1.833084,0.692951 z"
       id="path1320" />
    <path
       style="display:inline;fill:#ffffff;fill-opacity:1;stroke-width:0.0333374"
       d="m 48.256193,83.219416 c 0.06959,-1.695733 1.023614,-3.598644 1.023614,-3.598644 -2.051776,0.366738 -3.740201,1.663631 -4.48052,3.106938 -0.494137,0.782448 -0.463447,1.951785 -0.470849,2.792068 -0.0072,0.823457 0.356783,2.162165 1.897045,2.177355 1.676343,0.01652 1.948617,-1.417132 1.948617,-1.417132 z"
       id="path2936"
       sodipodi:nodetypes="cccsscc" />
  </g>
</svg>
