<?xml version="1.0" encoding="UTF-8" standalone="no"?>
<!-- Created with Inkscape (http://www.inkscape.org/) -->

<svg
   width="11.76712mm"
   height="11.039343mm"
   viewBox="0 0 11.76712 11.039343"
   version="1.1"
   id="svg5"
   inkscape:export-filename="logo.svg"
   inkscape:export-xdpi="68.779999"
   inkscape:export-ydpi="68.779999"
   sodipodi:docname="logo.svg"
   xmlns:inkscape="http://www.inkscape.org/namespaces/inkscape"
   xmlns:sodipodi="http://sodipodi.sourceforge.net/DTD/sodipodi-0.dtd"
   xmlns="http://www.w3.org/2000/svg"
   xmlns:svg="http://www.w3.org/2000/svg">
  <sodipodi:namedview
     id="namedview7"
     pagecolor="#ffffff"
     bordercolor="#999999"
     borderopacity="1"
     inkscape:showpageshadow="0"
     inkscape:pageopacity="0"
     inkscape:pagecheckerboard="0"
     inkscape:deskcolor="#d1d1d1"
     inkscape:document-units="mm"
     showgrid="false" />
  <defs
     id="defs2" />
  <g
     inkscape:label="Arriba"
     inkscape:groupmode="layer"
     id="layer1"
     style="display:inline"
     transform="translate(-39.861435,-74.968611)">
    <path
       style="fill:#00008a;fill-opacity:1;stroke-width:0.0306054"
       d="m 41.469501,81.355038 c -0.669596,-0.08255 -1.284404,-0.440719 -1.477637,-0.860831 -0.242519,-0.527274 -0.138639,-1.187325 0.243483,-1.547038 0.284981,-0.268272 0.513837,-0.347216 1.157736,-0.399363 0.394977,-0.03199 2.057352,-0.123246 2.253403,-0.12371 l 0.09643,-1.56e-4 0.0141,-1.167933 c 0.01174,-0.973581 0.02254,-1.19399 0.0647,-1.324546 0.220479,-0.682925 0.81867,-1.033938 1.598198,-0.937809 0.499578,0.06162 0.893827,0.353974 1.134209,0.841107 0.160366,0.324975 0.179146,0.480574 0.163232,1.352547 -0.01307,0.716666 -0.01891,0.779757 -0.09533,1.031569 -0.17013,0.560623 -0.43346,1.002141 -0.870031,1.458771 -0.967843,1.012301 -2.321164,1.626215 -3.720495,1.687735 -0.194031,0.0086 -0.446948,0.0039 -0.56204,-0.01027 z"
       id="path1316" />
    <path
       style="display:inline;fill:#f9f9f9;fill-opacity:1;stroke-width:0.026132"
       d="m 43.700709,78.444766 c -0.0074,1.296567 -0.799939,2.824611 -0.799939,2.824611 1.638674,-0.337473 3.038789,-1.423422 3.592565,-2.546063 0.3748,-0.611207 0.316691,-1.503087 0.298612,-2.144814 -0.01773,-0.628878 -0.348602,-1.640725 -1.587056,-1.609168 -1.347867,0.03434 -1.466249,1.107486 -1.466249,1.107486 z"
       id="path1376"
       sodipodi:nodetypes="cccsscc" />
  </g>
  <g
     inkscape:groupmode="layer"
     id="layer2"
     inkscape:label="Abajo"
     style="display:inline"
     transform="translate(-39.861435,-74.968611)">
    <path
       style="fill:#000080;fill-opacity:1;stroke-width:0.0305385"
       d="m 45.957436,85.978032 c -0.476022,-0.08541 -0.853398,-0.363464 -1.059068,-0.780335 -0.19553,-0.396316 -0.213304,-0.521628 -0.188644,-1.329874 0.01836,-0.601756 0.03304,-0.756372 0.09447,-0.996465 0.174778,-0.682795 0.593956,-1.305636 1.25032,-1.857805 0.897283,-0.754846 1.958963,-1.196933 3.084776,-1.284511 0.971447,-0.07557 1.640773,0.08376 2.079601,0.495061 0.285827,0.267895 0.410298,0.560859 0.409661,0.964206 -10e-4,0.662771 -0.342566,1.105779 -0.974091,1.263576 -0.224542,0.0561 -0.93902,0.0997 -2.064142,0.125931 l -0.888016,0.02071 -10e-4,0.428367 c -6.27e-4,0.235599 -0.01351,0.749859 -0.02869,1.142788 -0.03148,0.812146 -0.06903,0.988124 -0.272461,1.276637 -0.288784,0.409571 -0.889516,0.630968 -1.442726,0.531708 z"
       id="path1320" />
    <path
       style="display:inline;fill:#ffffff;fill-opacity:1;stroke-width:0.0259069"
       d="m 47.732245,82.572054 c 0.05478,-1.301151 0.805635,-2.761273 0.805635,-2.761273 -1.614847,0.281402 -2.94372,1.27652 -3.526387,2.383982 -0.388907,0.600379 -0.364755,1.497623 -0.370579,2.14238 -0.0058,0.631846 0.280805,1.659049 1.493064,1.670704 1.319364,0.01262 1.533657,-1.087377 1.533657,-1.087377 z"
       id="path2936"
       sodipodi:nodetypes="cccsscc" />
  </g>
</svg>
