<svg xmlns="http://www.w3.org/2000/svg" viewBox="0 0 500 500"><g id="freepik--background-complete--inject-64"><path d="M278.44,462.06c-17.24-8.16-24.11-27.56-26.54-45.63-.41-3-1.27-6.12-.29-9s4-5.23,6.9-4.42c2.41.67,3.82,3.09,5.43,5a17.66,17.66,0,0,0,8.16,5.52c2.08.67,4.55.88,6.26-.48,2.34-1.87,2-5.49,1.52-8.47Q278.41,396.29,277,388a28.24,28.24,0,0,1-.59-9c.44-3,2.05-6,4.75-7.24s6.49-.23,7.58,2.59a28.31,28.31,0,0,1,.72,3.69c.29,1.23,1.1,2.5,2.33,2.65s2.3-.9,3.05-1.93c2.56-3.53,4-7.76,5.3-11.95s2.52-8.46,4.76-12.22,5.66-7,9.89-8,9.23.9,11,4.91.06,8.7-2,12.56A67.69,67.69,0,0,1,312.1,379.6a5.57,5.57,0,0,0-1.9,2.88c-.31,2.1,1.91,3.76,4,4.08,2.34.36,4.72-.28,7.09-.4s5.06.48,6.32,2.53c1.73,2.84-.28,6.47-2.43,9a58,58,0,0,1-15.23,12.6c-2.06,1.17-4.25,2.27-5.76,4.11s-2.12,4.7-.7,6.62,4.29,2.13,6.51,1.31,4.07-2.41,6.12-3.6c3.84-2.24,9.18-2.86,12.41.24a9.56,9.56,0,0,1,2.41,8.18,21.93,21.93,0,0,1-3.27,8.13,58.26,58.26,0,0,1-21.58,21.36c-8.95,4.9-17.61,7.29-27.64,5.43" style="fill:#f5f5f5"></path><path d="M281.17,450a270.86,270.86,0,0,1,5.74-30.57l1.92-7.93c.63-2.61,1.26-5.19,2-7.67a136,136,0,0,1,5.26-14c1.89-4.38,3.84-8.48,5.69-12.29s3.66-7.33,5.44-10.46a107,107,0,0,1,9.48-14.16c1.25-1.58,2.26-2.77,2.95-3.57.33-.38.6-.68.79-.91s.28-.3.29-.29a3,3,0,0,1-.24.33l-.76.94c-.66.82-1.64,2-2.86,3.63a113.69,113.69,0,0,0-9.31,14.23c-1.75,3.14-3.53,6.66-5.37,10.47s-3.76,7.91-5.63,12.29a134.47,134.47,0,0,0-5.2,14c-.77,2.47-1.39,5-2,7.64l-1.92,7.94a277.08,277.08,0,0,0-5.77,30.5" style="fill:#e0e0e0"></path><path d="M291,403.79a5.79,5.79,0,0,1-.51-1.23c-.3-.79-.69-2-1.15-3.41-.92-2.9-2.06-6.95-3.3-11.41s-2.43-8.49-3.4-11.36c-.48-1.44-.88-2.61-1.16-3.4a7.35,7.35,0,0,1-.39-1.27,5.84,5.84,0,0,1,.59,1.19c.35.77.8,1.92,1.33,3.34,1.07,2.86,2.32,6.87,3.57,11.35s2.3,8.4,3.14,11.44c.39,1.38.71,2.54,1,3.47A7.53,7.53,0,0,1,291,403.79Z" style="fill:#e0e0e0"></path><path d="M328.15,390.13a7.55,7.55,0,0,1-1.5.45c-1,.25-2.37.61-4.09,1.11-3.45,1-8.16,2.48-13.29,4.38s-9.7,3.83-13,5.31c-1.64.73-2.95,1.36-3.86,1.79a8.72,8.72,0,0,1-1.43.62,7.51,7.51,0,0,1,1.33-.82c.88-.49,2.17-1.17,3.79-2,3.23-1.58,7.79-3.57,12.93-5.48a135,135,0,0,1,13.39-4.23c1.74-.46,3.16-.76,4.15-.95A8.54,8.54,0,0,1,328.15,390.13Z" style="fill:#e0e0e0"></path><path d="M281.52,449.23a2.61,2.61,0,0,1-.34-.43l-.89-1.27c-.77-1.12-1.84-2.75-3.13-4.79-2.6-4.08-6-9.83-9.67-16.23s-7-12.17-9.53-16.29l-3-4.89-.8-1.33a1.91,1.91,0,0,1-.25-.48s.13.13.34.42.54.76.89,1.28c.77,1.11,1.84,2.74,3.14,4.79,2.59,4.08,6,9.82,9.67,16.22s7,12.17,9.52,16.3l3,4.88c.32.53.59,1,.8,1.33A1.85,1.85,0,0,1,281.52,449.23Z" style="fill:#e0e0e0"></path><path d="M329.7,424.18a1.86,1.86,0,0,1-.47.3l-1.39.74-5.16,2.69c-4.36,2.28-10.34,5.49-16.94,9s-12.61,6.72-17,8.9c-2.2,1.09-4,2-5.24,2.53L282,449a2.32,2.32,0,0,1-.52.2,2.15,2.15,0,0,1,.47-.3l1.4-.74,5.16-2.7c4.35-2.27,10.33-5.48,16.93-9s12.62-6.71,17-8.89c2.2-1.09,4-2,5.24-2.53l1.44-.66A2,2,0,0,1,329.7,424.18Z" style="fill:#e0e0e0"></path><path d="M153.4,247.41s-11.88,1.65-5.21,27.67,12.33,39.44,12.33,39.44.89,5.89-3.86,5.71-14.44-4-17.73,1.09c-3.4,5.32-.42,11.72,7,18.43s23.24,22,24.66,23.39,2.46,4.25-.8,4.64-26.38-2.32-27,8.73,23.21,26.33,25.78,28.05,3,3.06,2.4,4.56-8.26-.15-14.87-.66-14.37.08-14.2,6.48,12.69,22.6,49.19,34.64l17.29,4.47,12.77-12.58c25.7-28.59,28.51-48.86,25.48-54.5s-10-2.29-15.54,1.43-11.34,9-12.58,8-1.56-2.38-.18-5.15,14.47-27.87,8.43-37.15S202,358.64,199,359.91s-3.54-1.75-3-3.63,6.64-23,9.78-32.55,2.54-16.57-3.06-19.49c-5.4-2.81-11.89,5.35-15.93,7.87s-6.18-3-6.18-3-1.76-14.45-8.9-40.35-18.53-21.26-18.53-21.26" style="fill:#ebebeb"></path><path d="M208.37,458.35c-5.17-19-13.8-53-21.35-82.19s-14.41-55.51-19.49-74.57c-2.54-9.52-4.6-17.22-6-22.57-.7-2.65-1.25-4.72-1.63-6.14l-.42-1.6c-.09-.36-.12-.55-.12-.55s.07.17.18.53.26.91.46,1.59c.41,1.42,1,3.47,1.74,6.11,1.5,5.31,3.62,13,6.2,22.52,5.17,19,12.1,45.41,19.65,74.54s16.11,63.16,21.19,82.22" style="fill:#e0e0e0"></path><path d="M152.27,327.26a6.46,6.46,0,0,1,1.14.61c.71.42,1.73,1.06,3,1.86,2.49,1.61,5.88,3.92,9.57,6.53l9.42,6.72,2.87,2a5.68,5.68,0,0,1,1,.79,6.29,6.29,0,0,1-1.15-.61c-.71-.42-1.73-1.06-3-1.87-2.47-1.63-5.83-4-9.52-6.6l-9.47-6.65-2.88-2A5.87,5.87,0,0,1,152.27,327.26Z" style="fill:#e0e0e0"></path><path d="M180.72,344.94c-.13-.08,4.32-7.27,9.93-16.06s10.28-15.85,10.41-15.77-4.32,7.28-9.94,16.07S180.85,345,180.72,344.94Z" style="fill:#e0e0e0"></path><path d="M190.3,390.22a5.27,5.27,0,0,1,.95-.92l2.69-2.36c2.27-2,5.4-4.76,8.74-7.94s6.28-6.15,8.38-8.32c1-1,1.82-1.89,2.49-2.57a6.91,6.91,0,0,1,1-.91,5.25,5.25,0,0,1-.8,1.05c-.54.65-1.35,1.57-2.37,2.69-2,2.25-4.92,5.28-8.28,8.46s-6.52,5.92-8.86,7.84c-1.18,1-2.14,1.72-2.82,2.23A6.11,6.11,0,0,1,190.3,390.22Z" style="fill:#e0e0e0"></path><path d="M161.05,379.89a5,5,0,0,1,1.18.29l3.17,1c2.66.85,6.33,2.06,10.37,3.42s7.69,2.64,10.32,3.59l3.11,1.14a5.4,5.4,0,0,1,1.11.49,4.61,4.61,0,0,1-1.18-.28l-3.17-1c-2.66-.85-6.33-2.06-10.37-3.43s-7.69-2.64-10.32-3.58l-3.11-1.15A4.53,4.53,0,0,1,161.05,379.89Z" style="fill:#e0e0e0"></path><path d="M164.43,420.94a7.94,7.94,0,0,1,1.51.38l4.06,1.24c3.42,1.07,8.13,2.58,13.33,4.29s9.89,3.27,13.28,4.44l4,1.4a10.22,10.22,0,0,1,1.45.59,7.91,7.91,0,0,1-1.52-.38l-4.06-1.24c-3.42-1.07-8.13-2.58-13.33-4.29s-9.89-3.28-13.27-4.44l-4-1.41A8.65,8.65,0,0,1,164.43,420.94Z" style="fill:#e0e0e0"></path><path d="M201.24,432.73a8.94,8.94,0,0,1,1.17-1.19l3.31-3.11c2.79-2.63,6.63-6.28,10.76-10.43s7.78-8,10.4-10.8l3.1-3.32a10.62,10.62,0,0,1,1.19-1.18,8.86,8.86,0,0,1-1,1.32c-.68.83-1.7,2-3,3.44-2.55,2.88-6.15,6.78-10.3,10.93s-8,7.77-10.88,10.33c-1.44,1.27-2.61,2.3-3.44,3A9.94,9.94,0,0,1,201.24,432.73Z" style="fill:#e0e0e0"></path><path d="M101.8,92.24l-9.76-3s-2.56,8.2-11.12,5.69a8.29,8.29,0,0,1-6.07-7.43A9.12,9.12,0,0,1,78,79.77c2.51-2.22,6.91-3.57,13.12-.36l6.87-22-9.65-3-4,12.89S69.7,66.57,65.05,81.48c-4.45,14.27,7.31,21.58,12.79,23.29C82,106.07,96.61,109.51,101.8,92.24Z" style="fill:#f5f5f5"></path><rect x="90.84" y="41.99" width="10.26" height="9.58" transform="translate(173.65 120.03) rotate(-162.67)" style="fill:#f5f5f5"></rect><path d="M128.73,67.4l3.91-1a3.43,3.43,0,0,1,2.53-4.23,3.28,3.28,0,0,1,3.6,1.21,3.61,3.61,0,0,1,.55,3.23c-.37,1.27-1.56,2.65-4.32,2.88l2.33,8.81,3.86-1-1.36-5.16a7.79,7.79,0,0,0,3.47-8.8c-1.5-5.72-7-5.69-9.17-5.12C132.45,58.61,126.84,60.52,128.73,67.4Z" style="fill:#ebebeb"></path><rect x="138.21" y="79.5" width="4.06" height="3.79" transform="matrix(0.97, -0.26, 0.26, 0.97, -16.12, 38.46)" style="fill:#ebebeb"></rect><path d="M451.54,168.61l3.8,1.37a3.44,3.44,0,0,1,4.5-2,3.26,3.26,0,0,1,2.26,3,3.63,3.63,0,0,1-1.38,3c-1,.83-2.79,1.28-5.19-.1l-3.11,8.57,3.76,1.36,1.82-5a7.81,7.81,0,0,0,7.87-5.26c2-5.56-2.51-8.65-4.64-9.42C459.6,163.49,453.9,161.88,451.54,168.61Z" style="fill:#ebebeb"></path><rect x="451.01" y="184.77" width="4.06" height="3.79" transform="translate(90.67 -143.15) rotate(19.91)" style="fill:#ebebeb"></rect><path d="M48.26,212.13l8-3.1s-2.6-6.75,4.37-9.58a7,7,0,0,1,7.9,1.73,7.73,7.73,0,0,1,1.94,6.73c-.5,2.78-2.7,6-8.49,7.11l7,18.13,8-3.06-4.1-10.62s10-7.18,5.31-19.48C73.64,188.23,62,189.57,57.53,191.3,54.08,192.63,42.64,198,48.26,212.13Z" style="fill:#f5f5f5"></path><rect x="71.58" y="235.07" width="8.65" height="8.08" transform="translate(-80.88 43.27) rotate(-21.07)" style="fill:#f5f5f5"></rect><path d="M454.67,242.64l-5.7,2.19s1.84,4.79-3.1,6.79a5,5,0,0,1-5.6-1.22,5.47,5.47,0,0,1-1.37-4.77c.36-2,1.92-4.24,6-5L440,227.74l-5.64,2.17,2.9,7.53a11.79,11.79,0,0,0-3.76,13.8c3.21,8.33,11.43,7.39,14.63,6.16C450.55,256.45,458.65,252.65,454.67,242.64Z" style="fill:#f5f5f5"></path><rect x="432.01" y="220.66" width="6.13" height="5.72" transform="translate(921.42 275.69) rotate(158.93)" style="fill:#f5f5f5"></rect></g><g id="freepik--Plant--inject-64"><path d="M92.64,437.8c1-3.68-1.47-7.37-4.17-10s-5.93-5.05-7.34-8.58c-2.28-5.72.78-13.12-3.1-17.89-2.29-2.8-6.39-3.74-8.42-6.74a15.23,15.23,0,0,1-1.83-5.35,54.32,54.32,0,0,0-13.53-25.32,47.22,47.22,0,0,0,5.31,24.4c1.57,3,3.51,5.92,4,9.27.85,5.43-2.19,11-.85,16.36,1.53,6.1,8.38,10.19,8.7,16.47.28,5.31-4.35,10-4,15.28A14.22,14.22,0,0,0,69.8,452c4.1,6.83,10.14,11.53,19.28,11.38l11.2.39Z" style="fill:#0D6DFC"></path><g style="opacity:0.30000000000000004"><path d="M92.64,437.8c1-3.68-1.47-7.37-4.17-10s-5.93-5.05-7.34-8.58c-2.28-5.72.78-13.12-3.1-17.89-2.29-2.8-6.39-3.74-8.42-6.74a15.23,15.23,0,0,1-1.83-5.35,54.32,54.32,0,0,0-13.53-25.32,47.22,47.22,0,0,0,5.31,24.4c1.57,3,3.51,5.92,4,9.27.85,5.43-2.19,11-.85,16.36,1.53,6.1,8.38,10.19,8.7,16.47.28,5.31-4.35,10-4,15.28A14.22,14.22,0,0,0,69.8,452c4.1,6.83,10.14,11.53,19.28,11.38l11.2.39Z"></path></g><path d="M102.54,464a9,9,0,0,0,3.09-.06,19.27,19.27,0,0,0,3.63-.92,15.55,15.55,0,0,0,4.5-2.46,6.22,6.22,0,0,0,1.85-2.47,11.67,11.67,0,0,0,.52-3.34,32.52,32.52,0,0,1,.27-3.62,9.79,9.79,0,0,1,1.36-3.6c1.32-2.32,3.52-4.52,4.22-7.67s.22-6.45-.3-9.81-1-7,.26-10.52,3.66-6.67,4.89-10.61.65-8.28.91-12.51a16.5,16.5,0,0,1,1.46-6.22c.9-2,2.16-3.85,3.14-5.93,2-4.22,2.34-9,2.88-13.69.27-2.36.53-4.75.8-7.15a35.54,35.54,0,0,1,1.25-7.17,64.16,64.16,0,0,1,2.68-6.93,24.09,24.09,0,0,0,1.3-3.61,36.45,36.45,0,0,0,.36-3.86,45.81,45.81,0,0,0-.3-7.75c-.3-2.58-.77-5.14-1.05-7.73,0-.16,0-.31,0-.45l-.06-.51-.45.22a17.3,17.3,0,0,0-6,5.09,27.65,27.65,0,0,0-3.71,6.83c-1.87,4.81-2.54,9.85-3.48,14.66s-2.14,9.54-4.6,13.54c-1.23,2-2.72,3.82-4,5.76a15.78,15.78,0,0,0-2.78,6.38c-.67,4.74,1.94,8.9,1.4,13.1a14.49,14.49,0,0,1-2,5.81c-1,1.79-2.21,3.45-3.35,5.11a32.76,32.76,0,0,0-3,5.17,16.27,16.27,0,0,0-1.38,5.61c-.27,3.78.26,7.36,0,10.74a24.75,24.75,0,0,1-2.77,9.21c-1.35,2.75-2.86,5.24-4.12,7.66-.63,1.2-1.22,2.38-1.7,3.57a17.87,17.87,0,0,0-1,3.54,22.2,22.2,0,0,0-.08,6.39,16.11,16.11,0,0,0,3.2,8.15,8.11,8.11,0,0,0,.91,1,4.55,4.55,0,0,0,.73.62c.42.31.64.45.64.45a13.93,13.93,0,0,1-2.17-2.14,16.15,16.15,0,0,1-3-8.1,22.09,22.09,0,0,1,.14-6.3,17,17,0,0,1,1-3.45,36.53,36.53,0,0,1,1.71-3.52c1.27-2.4,2.79-4.88,4.17-7.65a25,25,0,0,0,2.86-9.37c.3-3.45-.22-7.05.06-10.73a16.06,16.06,0,0,1,1.35-5.43,32.62,32.62,0,0,1,3-5.06c1.14-1.66,2.35-3.32,3.39-5.15a15,15,0,0,0,2.14-6.05c.54-4.47-2.05-8.65-1.38-13.06a15.33,15.33,0,0,1,2.69-6.1c1.27-1.91,2.77-3.73,4-5.78,2.55-4.11,3.78-8.93,4.71-13.76s1.62-9.83,3.46-14.55a26.91,26.91,0,0,1,3.61-6.64,16.59,16.59,0,0,1,5.77-4.88l-.51-.29c0,.15,0,.3.05.46.28,2.62.75,5.18,1,7.74a44.36,44.36,0,0,1,.29,7.63,37.37,37.37,0,0,1-.34,3.74,22.5,22.5,0,0,1-1.26,3.49,66.05,66.05,0,0,0-2.7,7,36.3,36.3,0,0,0-1.26,7.28c-.26,2.41-.53,4.8-.79,7.16-.54,4.71-.89,9.41-2.8,13.48-1,2-2.2,3.91-3.13,5.95a17.11,17.11,0,0,0-1.5,6.45c-.25,4.32.31,8.55-.86,12.37s-3.6,7-4.83,10.61-.78,7.43-.24,10.78,1.08,6.65.36,9.62-2.78,5.19-4.12,7.57a10.19,10.19,0,0,0-1.39,3.75,31.48,31.48,0,0,0-.24,3.66,11.2,11.2,0,0,1-.48,3.26,5.89,5.89,0,0,1-1.73,2.35,15.41,15.41,0,0,1-4.39,2.48,19.39,19.39,0,0,1-3.59,1,13.76,13.76,0,0,1-2.27.22C102.81,464,102.54,464,102.54,464Z" style="fill:#263238"></path><path d="M137.92,332.1a1.2,1.2,0,0,0-.11.34l-.24,1c-.22.89-.49,2.22-.91,3.88s-1.45,3.54-2.32,5.85a83.47,83.47,0,0,0-2.66,7.94c-.86,3-1.61,6.3-2.41,9.86a41.47,41.47,0,0,1-3.58,10.93c-.92,1.82-2,3.66-2.77,5.68a26.05,26.05,0,0,0-1.61,6.42,131.08,131.08,0,0,1-2.42,13.55c-2.24,9.17-4.38,17.91-6.33,25.87s-3.79,15.08-5.31,21.1-2.67,10.82-3.51,14.25c-.39,1.64-.7,2.93-.92,3.88-.09.41-.17.74-.23,1a1.85,1.85,0,0,0,0,.35,1.31,1.31,0,0,0,.13-.33c.07-.27.17-.59.29-1,.25-.93.6-2.22,1.05-3.85.9-3.4,2.17-8.23,3.74-14.18s3.4-13.15,5.45-21.06,4.13-16.71,6.39-25.89A124.72,124.72,0,0,0,122,384.1a25.83,25.83,0,0,1,1.56-6.27c.79-2,1.8-3.79,2.72-5.63,2-3.65,2.79-7.57,3.58-11.1s1.49-6.87,2.31-9.85,1.68-5.64,2.54-7.94,1.81-4.2,2.22-5.92.6-3,.78-3.92q.1-.62.18-1C137.92,332.22,137.94,332.1,137.92,332.1Z" style="fill:#263238"></path><path d="M104.52,464.05c7.31-4.35,9.41-17.55,6.36-25.49s-8.39-15.2-9.21-23.67c-.64-6.51,1.5-13.19,0-19.55-2.05-8.59-10.43-15.24-10.33-24.07.05-4.95,2.87-9.61,2.64-14.56-.27-6.06-4.93-10.88-7.81-16.22-4.42-8.19-4.71-17.86-6.22-27s-5-19-13.14-23.51c-1.2,7.79-3.25,13.13-2.61,23.68.24,3.79,4.64,11,5.24,19.35.36,5,.6,9.94.91,14.9s.61,9.76,2.34,14.28c1.33,3.47,3.46,6.62,4.45,10.2,1.85,6.73-.59,14,.91,20.84,1.27,5.78,5.27,10.75,6.09,16.61,1.14,8.23-4.18,16.79-1.46,24.64,1.36,3.9,4.56,7,5.47,11.05.71,3.12-.06,6.43.58,9.56,1,5.06,10.66,9,15.81,8.67" style="fill:#0D6DFC"></path><path d="M68.81,297.67a2.37,2.37,0,0,0,0,.44c0,.33.1.75.16,1.28.17,1.13.36,2.78.74,4.92s1.52,4.56,2.4,7.48,1.86,6.26,2.68,10,1.54,7.91,2.27,12.38,1.53,9.34,3.75,14c1,2.33,2.18,4.67,3,7.17a32.35,32.35,0,0,1,1.54,7.9,158.1,158.1,0,0,0,2.15,17c2.24,11.54,4.37,22.53,6.31,32.54s3.89,18.94,5.45,26.5,2.84,13.6,3.73,17.86l1,4.85c.12.52.21.93.29,1.25a2.49,2.49,0,0,0,.12.43,1.83,1.83,0,0,0,0-.44c-.06-.33-.13-.74-.22-1.27-.22-1.16-.53-2.8-.92-4.88-.84-4.27-2-10.37-3.51-17.9s-3.3-16.56-5.29-26.53-4-21-6.25-32.53a159.51,159.51,0,0,1-2.16-17,32.82,32.82,0,0,0-1.59-8.06c-.89-2.54-2.06-4.89-3.09-7.21-2.2-4.59-3-9.38-3.76-13.83s-1.49-8.63-2.36-12.39-1.82-7.12-2.8-10-2.07-5.32-2.51-7.41-.65-3.77-.86-4.88c-.1-.52-.18-.94-.24-1.27A3.39,3.39,0,0,0,68.81,297.67Z" style="fill:#263238"></path></g><g id="freepik--speech-bubble--inject-64"><path d="M421.47,88.77h-4A3.39,3.39,0,0,1,414,92.18a3.22,3.22,0,0,1-3.12-2.06,3.56,3.56,0,0,1,.28-3.22c.68-1.12,2.16-2.13,4.84-1.66v-9h-3.93v5.26A7.68,7.68,0,0,0,406.56,89c0,5.82,5.22,7.17,7.46,7.17C415.73,96.21,421.55,95.8,421.47,88.77Z" style="fill:#0D6DFC"></path><rect x="412.04" y="70.69" width="3.99" height="3.73" transform="translate(828.07 145.11) rotate(180)" style="fill:#0D6DFC"></rect><path d="M443.28,83.45a3.26,3.26,0,0,0,0-.51c0-.36,0-.85,0-1.48,0-.32,0-.69-.05-1.09s-.11-.84-.18-1.3-.14-1-.22-1.53l-.42-1.7a27.74,27.74,0,0,0-3.6-8.25,29.09,29.09,0,0,0-21.89-13.38,29.4,29.4,0,0,0-4-.08c-.67,0-1.36,0-2,.13l-2.06.31a29.69,29.69,0,0,0-8.12,2.77,31.68,31.68,0,0,0-7.29,5.31,30.35,30.35,0,0,0-5.49,7.64A27.73,27.73,0,0,0,385,79.6a18.87,18.87,0,0,0-.21,2.49,21,21,0,0,0-.05,2.51,29.51,29.51,0,0,0,4.85,15.05l0-.31c-1.39,3.47-2.76,6.88-4.1,10.2l-.24.61.63-.18,10.9-3-.26-.06A29.18,29.18,0,0,0,409,112.37a26,26,0,0,0,6.38.39,19.47,19.47,0,0,0,3.07-.29l1.49-.23c.49-.09,1-.24,1.44-.35A29.17,29.17,0,0,0,438,100.5a27.83,27.83,0,0,0,3.57-6.77c.19-.53.37-1,.54-1.52s.26-1,.37-1.45.23-.91.33-1.33.13-.83.19-1.22c.09-.77.23-1.45.26-2s0-1.08,0-1.5,0-.68,0-.91,0-.31,0-.31a1.05,1.05,0,0,0,0,.31c0,.23,0,.53-.07.91s-.06.91-.1,1.49-.19,1.26-.31,2a29,29,0,0,1-21.51,23.2c-.47.11-.94.25-1.42.34l-1.47.22a19.93,19.93,0,0,1-3,.27,26.63,26.63,0,0,1-6.26-.41,28.85,28.85,0,0,1-12.19-5.37l-.12-.1-.15,0-10.91,3,.38.43,4.11-10.19.06-.16-.09-.15a28.76,28.76,0,0,1-4.12-9.79,29.3,29.3,0,0,1-.62-4.92,20,20,0,0,1,.05-2.45,16.37,16.37,0,0,1,.2-2.43,27.06,27.06,0,0,1,2.79-9.11,30.11,30.11,0,0,1,5.35-7.48A30.88,30.88,0,0,1,401,57.89a28.79,28.79,0,0,1,7.95-2.75l2-.31c.67-.1,1.34-.09,2-.14a29.9,29.9,0,0,1,3.91.07,28.78,28.78,0,0,1,21.63,13,27.69,27.69,0,0,1,3.66,8.12l.45,1.68c.09.53.17,1,.25,1.5s.14.9.21,1.3.05.76.08,1.08c0,.62.08,1.11.11,1.47A1.69,1.69,0,0,0,443.28,83.45Z" style="fill:#263238"></path></g><g id="freepik--question-mark--inject-64"><path d="M145.07,201.38h57.75s0-48.49,50.39-49.35c26.17-.46,39.74,16.69,45.26,29.82,6.4,15.25,4.46,32.63-4.12,46.78-9.79,16.15-30.89,32.38-69.81,25.52l-.37,128.67h57.11V306.54s80.09-20.7,80.09-109c0-84.45-68.29-102.69-105-103.87-20.42-.65-27.82-1.53-53.08,2.06C171.1,100.33,144.39,137.71,145.07,201.38Z" style="fill:#0D6DFC"></path><rect x="224.01" y="409.64" width="57.96" height="54.13" style="fill:#0D6DFC"></rect><rect x="224.01" y="409.64" width="57.96" height="54.13" style="opacity:0.1"></rect><path d="M145.07,201.38h57.75s0-48.49,50.39-49.35c26.17-.46,39.74,16.69,45.26,29.82,6.4,15.25,4.46,32.63-4.12,46.78-9.79,16.15-30.89,32.38-69.81,25.52l-.37,128.67h57.11V306.54s80.09-20.7,80.09-109c0-84.45-68.29-102.69-105-103.87-20.42-.65-27.82-1.53-53.08,2.06C171.1,100.33,144.39,137.71,145.07,201.38Z" style="opacity:0.1"></path><path d="M121.14,201.38H178.9s0-48.49,50.39-49.35c26.17-.46,39.74,16.69,45.25,29.82,6.41,15.25,4.47,32.63-4.11,46.78-9.79,16.15-31.26,30.83-70.18,24V382.82h57.11V306.54s80.09-20.7,80.09-109c0-84.45-75.74-104.06-108.15-104.06C204.51,93.51,120.05,99.5,121.14,201.38Z" style="fill:#0D6DFC"></path><path d="M121.14,201.38H178.9s0-48.49,50.39-49.35c26.17-.46,39.74,16.69,45.25,29.82,6.41,15.25,4.47,32.63-4.11,46.78-9.79,16.15-31.26,30.83-70.18,24V382.82h57.11V306.54s80.09-20.7,80.09-109c0-84.45-75.74-104.06-108.15-104.06C204.51,93.51,120.05,99.5,121.14,201.38Z" style="opacity:0.30000000000000004"></path><rect x="200.09" y="409.64" width="57.96" height="54.13" style="fill:#0D6DFC"></rect><rect x="200.09" y="409.64" width="57.96" height="54.13" style="opacity:0.30000000000000004"></rect><path d="M235.81,152.29a5,5,0,0,1-.86,0c-.57,0-1.39-.19-2.46-.2a49.89,49.89,0,0,0-9.06.38,64.18,64.18,0,0,0-13.07,3.07,55.92,55.92,0,0,0-7.28,3.14,38.48,38.48,0,0,0-7.13,4.61,35.24,35.24,0,0,0-5.83,6.16,60.36,60.36,0,0,0-4.37,6.62,59.19,59.19,0,0,0-5.17,12.38,50.35,50.35,0,0,0-1.74,8.9c-.12,1.06-.15,1.9-.18,2.46a4.55,4.55,0,0,1-.08.86,4.78,4.78,0,0,1,0-.86c0-.57,0-1.41.09-2.48a46,46,0,0,1,1.59-9,57.6,57.6,0,0,1,5.1-12.52,59.89,59.89,0,0,1,4.39-6.69,35,35,0,0,1,5.9-6.25,38.76,38.76,0,0,1,7.22-4.67A56,56,0,0,1,210.2,155a62.82,62.82,0,0,1,13.19-3,46,46,0,0,1,9.11-.21,21.56,21.56,0,0,1,2.46.3A6.21,6.21,0,0,1,235.81,152.29Z" style="fill:#263238"></path><path d="M322.83,142s-.07-.07-.19-.22-.3-.41-.5-.7l-1.91-2.7c-.41-.58-.85-1.25-1.37-1.94l-1.8-2.19L315,131.72c-.75-.88-1.63-1.73-2.51-2.66s-1.78-1.92-2.8-2.87-2.11-1.92-3.23-2.92c-.56-.5-1.11-1-1.71-1.53l-1.86-1.47c-1.27-1-2.53-2-3.9-3a125.71,125.71,0,0,0-18.93-11.18l-5.27-2.38-5.23-2c-1.71-.71-3.45-1.21-5.13-1.77s-3.32-1.13-5-1.52l-4.78-1.25c-1.55-.41-3.09-.66-4.56-1s-2.89-.64-4.28-.81l-4-.58c-2.53-.43-4.85-.52-6.87-.72-1-.08-2-.19-2.83-.23l-2.38-.06-3.3-.11-.86,0-.29,0a.94.94,0,0,1,.29,0l.86,0h3.3l2.39,0c.87,0,1.82.12,2.84.19,2,.17,4.36.24,6.89.65l4,.54c1.39.16,2.81.52,4.29.79s3,.55,4.59,1l4.8,1.24c1.66.38,3.3,1,5,1.51s3.43,1,5.14,1.76l5.26,2,5.3,2.39a122.56,122.56,0,0,1,19,11.26c1.38,1,2.64,2.07,3.91,3.06L305,121.4c.6.5,1.15,1,1.71,1.54l3.22,3c1,1,1.9,2,2.79,2.91s1.74,1.8,2.49,2.69l2,2.55,1.78,2.22c.51.7.94,1.38,1.34,2,.78,1.17,1.39,2.09,1.82,2.75l.47.73A1.15,1.15,0,0,1,322.83,142Z" style="fill:#263238"></path><path d="M316.81,266a3.09,3.09,0,0,1-.43.6L315,268.23c-.57.73-1.29,1.6-2.18,2.57s-1.84,2.11-3,3.29-2.4,2.5-3.81,3.83-2.94,2.73-4.57,4.19a124.88,124.88,0,0,1-23.36,16.11c-1.94,1-3.77,2-5.54,2.77s-3.42,1.56-4.94,2.2-2.92,1.17-4.14,1.64-2.29.85-3.17,1.13l-2,.65a3.49,3.49,0,0,1-.72.2,3.57,3.57,0,0,1,.68-.3l2-.74c.87-.31,1.92-.71,3.13-1.21s2.61-1,4.11-1.71,3.16-1.38,4.89-2.25,3.58-1.79,5.51-2.8c3.81-2.1,7.92-4.56,12.07-7.4s7.88-5.83,11.2-8.65c1.63-1.44,3.19-2.79,4.58-4.15s2.69-2.59,3.84-3.77,2.16-2.27,3.06-3.23,1.64-1.8,2.24-2.5l1.4-1.59A4.54,4.54,0,0,1,316.81,266Z" style="fill:#263238"></path><path d="M256.35,378.28c-.15,0-.27-16.06-.27-35.87s.12-35.88.27-35.88.26,16.06.26,35.88S256.49,378.28,256.35,378.28Z" style="fill:#263238"></path><path d="M258.55,460.1c-.15,0-.26-11.27-.26-25.17s.11-25.18.26-25.18.26,11.27.26,25.18S258.69,460.1,258.55,460.1Z" style="fill:#263238"></path></g></svg>